<svg xmlns="http://www.w3.org/2000/svg" viewBox="0 0 492.55 122.35"><defs><style>.cls-1{fill:#f9eec0}.cls-3{fill:#e85325}</style></defs><g id="Logotype"><path class="cls-1" d="M192 60.14a15.92 15.92 0 00-3.64-4 14.76 14.76 0 00-9.4-3.24c-7.87 0-15.88 6-15.88 16.61 0 11 8.08 16.87 15.88 16.87a16.13 16.13 0 009.73-3 13 13 0 005-7.41h-18.28V68h29.65a29.16 29.16 0 01-2.19 12.31C198.3 90.51 187.78 95 179 95a25.37 25.37 0 01-25.81-25.54c0-14.63 11.65-25.28 25.94-25.28 11 0 20.78 7 24 16zM212.14 45.11h8.67v7.75h-8.67zm0 12.64h8.67v36.34h-8.67zM232.32 64.44h-6v-6.69h6V45.11H241v12.64h6.22v6.69H241v29.65h-8.67zM254.36 45.11h9.86v22.7l16.22-22.7h10.38l-17.73 24.42 19.52 24.56h-12l-16.35-22v22h-9.86zM297.31 57.75h8.21v4.77c1.59-3.24 4.56-5.82 10.06-5.89v8.73h-.4c-6.09 0-9.2 2.85-9.2 9.14v19.59h-8.67zM356.81 94.09h-8.67v-5.23c-2.32 4.23-7.15 6.35-12.25 6.35-11.64 0-18.46-9.07-18.46-19.32 0-11.45 8.27-19.26 18.46-19.26 6.62 0 10.66 3.51 12.25 6.42v-5.3h8.67zm-30.71-18c0 4.5 3.24 11 11 11a10.28 10.28 0 009.66-5.83 12.4 12.4 0 001.39-5.09 11.26 11.26 0 00-1-5.1 10.66 10.66 0 00-10.12-6.42c-7 0-11 5.69-11 11.32zM366.27 45.11h8.67v26.48l12.51-13.84h10.39l-15.09 16 15.16 20.32H388L374.94 76v18.09h-8.67zM412.83 85.41c4.51 3.71 10.41 2.19 13.77-1.46a9.36 9.36 0 002.4-9.72l6.14-6.49a20.52 20.52 0 011.59 11.61 18 18 0 01-4.83 9.74 19.29 19.29 0 01-28.13-26.41 18.55 18.55 0 0113.36-6c6.36-.09 11.64 2.62 15.75 7.51zm9.42-19.6c-2.73-2.12-8.74-2.79-13.05 1.87s-3.46 10.4-1.08 13.09zM444 57.75h8.14c0 1.59 0 3.11-.07 4.84 1.59-2.85 4.83-6 11.32-6 11.84.07 14.09 9.13 14.09 15.55v21.95h-8.66V74.36c0-5.42-1.79-9.59-7.88-9.59s-8.27 4.17-8.27 9.26v20.06H444z"/></g><path d="M132.56 32.13a2.43 2.43 0 00-4.7.85 2.54 2.54 0 00.15.85 55.83 55.83 0 01-44.93 75V82.76a38.22 38.22 0 004.86-1.3v21.9a51.34 51.34 0 0012.64-94.81 2.43 2.43 0 00-2.34 4.25 46.49 46.49 0 01-5.46 83.94V77.32A7.46 7.46 0 0098 70.26a7.31 7.31 0 00-3.65-6.42c1.74-16.76 9.38-12.34 9.38-17.67v-3.12c0-8-18.51-34.07-27.18-34.7h-1.6C66.3 9 47.77 35 47.77 43.05v3.12c0 5.33 7.64.91 9.38 17.67a7.3 7.3 0 00-3.64 6.42 7.45 7.45 0 005.23 7.06v19.42a46.49 46.49 0 01-5.45-83.94 2.43 2.43 0 00-2.35-4.25 51.35 51.35 0 0012.65 94.81v-21.9a38.08 38.08 0 004.85 1.3v26.06a55.85 55.85 0 01-44.94-75 2.42 2.42 0 00-1.32-3.08 2.35 2.35 0 00-1-.2A2.44 2.44 0 0019 32.13a60.72 60.72 0 0054.34 82V83.39c.87 0 2.46.07 2.46.07s1.6 0 2.46-.07v30.71a60.69 60.69 0 0054.34-82zM87 66.74a5 5 0 11-1.46 3.52A5 5 0 0187 66.74zm-22.43 7.05a5 5 0 01-8.51-3.53 5 5 0 0110 0 5 5 0 01-1.49 3.53z" fill="#179287" id="Kraken"/><g id="Axosoft"><path class="cls-3" d="M215.37 30a3.2 3.2 0 00.42 1.08 2.24 2.24 0 00.79.77 2.37 2.37 0 001.22.28 2.47 2.47 0 001.24-.28 2.27 2.27 0 00.8-.77 3.68 3.68 0 00.42-1.08 6.36 6.36 0 00.12-1.24 6.54 6.54 0 00-.12-1.25 3.48 3.48 0 00-.42-1.08 2.25 2.25 0 00-2-1.06 2.37 2.37 0 00-1.22.29 2.42 2.42 0 00-.79.77 3 3 0 00-.42 1.08 6.54 6.54 0 00-.12 1.25 6.36 6.36 0 00.08 1.24zM192.77 30.13a3.23 3.23 0 00.42 1.07 2.21 2.21 0 00.81.8 2.36 2.36 0 001.21.28 2.39 2.39 0 001.22-.28 2.27 2.27 0 00.79-.75 3.45 3.45 0 00.41-1.07 6.31 6.31 0 000-2.45 3.18 3.18 0 00-.41-1.07 2.23 2.23 0 00-2-1.05 2.36 2.36 0 00-1.21.29 2.33 2.33 0 00-.77.76 3 3 0 00-.42 1.07 6.31 6.31 0 000 2.45zM174.65 29.09a4.78 4.78 0 01-.6.15 6.53 6.53 0 01-.66.1l-.69.11a4.74 4.74 0 00-.65.16 1.9 1.9 0 00-.55.28 1.25 1.25 0 00-.38.44 1.45 1.45 0 00-.12.67 1.39 1.39 0 00.14.65 1.13 1.13 0 00.39.42 1.45 1.45 0 00.57.22 3.74 3.74 0 00.68.06 2.6 2.6 0 001.33-.29 2 2 0 00.69-.68 2.37 2.37 0 00.28-.81 6.49 6.49 0 00.05-.65v-1.09a1.29 1.29 0 01-.48.26z"/><path class="cls-3" d="M164.32 17.09l-6.22 19.82H241l6.22-19.82zM175.44 34a4.67 4.67 0 01-.14-.5 4.51 4.51 0 01-.07-.53 3.74 3.74 0 01-1.64 1 6.51 6.51 0 01-1.92.28 5.34 5.34 0 01-1.41-.18 3.3 3.3 0 01-1.14-.57 2.6 2.6 0 01-.77-1 3.34 3.34 0 01-.28-1.41 3.09 3.09 0 01.32-1.48 2.56 2.56 0 01.82-.93 3.5 3.5 0 011.14-.52 12.07 12.07 0 011.3-.28c.44-.07.87-.12 1.29-.16a8.12 8.12 0 001.13-.18 2.21 2.21 0 00.77-.36.81.81 0 00.27-.69 1.43 1.43 0 00-.16-.74 1 1 0 00-.4-.43 1.58 1.58 0 00-.6-.21 5.31 5.31 0 00-.72-.05 2.15 2.15 0 00-1.35.37 1.64 1.64 0 00-.58 1.23h-2.9a3.35 3.35 0 01.51-1.7 3.4 3.4 0 011.15-1.08 4.86 4.86 0 011.56-.59 9.35 9.35 0 011.75-.17 12.84 12.84 0 011.62.11 5.06 5.06 0 011.49.44 2.88 2.88 0 011.1.91 2.51 2.51 0 01.43 1.54v5.5a11.88 11.88 0 00.08 1.37 2.54 2.54 0 00.29 1zm11.46 0l-2.24-3.44c-.74 1.11-1.46 2.24-2.15 3.38V34h-3.25a31.19 31.19 0 013.74-5.62l-3.46-4.95h3.31l2 2.94a31.4 31.4 0 017.37-5.46 81 81 0 00-6 7.38l4 5.72zm13.29-2.85A4.72 4.72 0 01197.4 34a6.32 6.32 0 01-2.23.38A6.23 6.23 0 01193 34a4.85 4.85 0 01-1.69-1.1 5 5 0 01-1.09-1.73 6.4 6.4 0 01-.38-2.25 6.51 6.51 0 01.38-2.27A4.72 4.72 0 01193 23.8a5.81 5.81 0 012.22-.4 5.9 5.9 0 012.23.4 4.94 4.94 0 011.7 1.1 4.86 4.86 0 011.09 1.74 6.29 6.29 0 01.38 2.27 6.18 6.18 0 01-.43 2.25zm10.88 1.2A3.43 3.43 0 01210 33.5a4.67 4.67 0 01-1.54.6 9.48 9.48 0 01-1.77.17 9 9 0 01-1.8-.18 4.52 4.52 0 01-1.56-.62 3.39 3.39 0 01-1.13-1.13 3.62 3.62 0 01-.48-1.77h2.76a1.73 1.73 0 00.19.81 1.68 1.68 0 00.51.55 2.24 2.24 0 00.7.32 3.25 3.25 0 00.83.1 2.91 2.91 0 00.64-.07 2.09 2.09 0 00.62-.23 1.38 1.38 0 00.46-.41 1.08 1.08 0 00.18-.64c0-.44-.29-.76-.87-1a17.44 17.44 0 00-2.42-.66 12.54 12.54 0 01-1.24-.33 4.24 4.24 0 01-1.07-.51 2.52 2.52 0 01-.76-.8 2.27 2.27 0 01-.28-1.18 3.2 3.2 0 01.39-1.67 3 3 0 011.06-1 4.51 4.51 0 011.47-.53 9.21 9.21 0 011.68-.15 8.27 8.27 0 011.66.16 4.59 4.59 0 011.44.55 3.29 3.29 0 011.06 1 3.52 3.52 0 01.5 1.62h-2.76a1.25 1.25 0 00-.64-1.13 2.86 2.86 0 00-1.35-.3h-.53a2.09 2.09 0 00-.52.13 1.08 1.08 0 00-.4.3.77.77 0 00-.16.52.79.79 0 00.29.64 2.34 2.34 0 00.74.4 10 10 0 001 .27l1.21.27a12.57 12.57 0 011.24.34 4 4 0 011.07.55 2.33 2.33 0 011 2.07 3.46 3.46 0 01-.35 1.8zM222.89 31a4.78 4.78 0 01-1.1 1.75 4.86 4.86 0 01-1.73 1.11 6.71 6.71 0 01-4.51 0 4.86 4.86 0 01-1.71-1.11 4.94 4.94 0 01-1.11-1.75 6.36 6.36 0 01-.39-2.29 6.49 6.49 0 01.39-2.3 5 5 0 011.11-1.76 4.89 4.89 0 011.71-1.12 6.56 6.56 0 014.51 0 4.88 4.88 0 011.73 1.12 4.82 4.82 0 011.1 1.76 6.49 6.49 0 01.39 2.3 6.36 6.36 0 01-.39 2.29zm13.87-5.64h-2.13v5.23a1.38 1.38 0 00.25 1 1.38 1.38 0 001 .25h.47c.15 0 .29 0 .43-.06V34c-.25 0-.52.06-.82.08h-.88a8.77 8.77 0 01-1.28-.09 3 3 0 01-1.06-.36 1.91 1.91 0 01-.73-.76 2.82 2.82 0 01-.26-1.29v-6.2h-3.54V34h-2.9v-8.62h-1.74v-1.95h1.74v-.81a3.15 3.15 0 01.88-2.31 3.54 3.54 0 012.65-.9h1.54v2.17a9.16 9.16 0 00-1.07-.07 1.12 1.12 0 00-.84.28 1.36 1.36 0 00-.26.93v.63h3.54v-3.09h2.9v3.17h2.13z"/></g></svg>