<svg xmlns="http://www.w3.org/2000/svg" viewBox="0 0 492.55 122.35"><defs><style>.cls-1{fill:#f9eec0}.cls-2{fill:#179287}.cls-3{fill:#e85325}</style></defs><title>x</title><g id="Logotype"><path d="M192,60.14a15.92,15.92,0,0,0-3.64-4,14.76,14.76,0,0,0-9.4-3.24c-7.87,0-15.88,6-15.88,16.61,0,11,8.08,16.87,15.88,16.87a16.13,16.13,0,0,0,9.73-3,13,13,0,0,0,5-7.41H175.41V68h29.65a29.16,29.16,0,0,1-2.19,12.31C198.3,90.51,187.78,95,179,95a25.37,25.37,0,0,1-25.81-25.54c0-14.63,11.65-25.28,25.94-25.28,11,0,20.78,7,24,16Z" class="cls-1"/><path d="M212.14,45.11h8.67v7.75h-8.67Zm0,12.64h8.67V94.09h-8.67Z" class="cls-1"/><path d="M232.32,64.44h-6V57.75h6V45.11H241V57.75h6.22v6.69H241V94.09h-8.67Z" class="cls-1"/><path d="M254.36,45.11h9.86v22.7l16.22-22.7h10.38L273.09,69.53l19.52,24.56h-12l-16.35-22v22h-9.86Z" class="cls-1"/><path d="M297.31,57.75h8.21v4.77c1.59-3.24,4.56-5.82,10.06-5.89v8.73h-.4c-6.09,0-9.2,2.85-9.2,9.14V94.09h-8.67Z" class="cls-1"/><path d="M356.81,94.09h-8.67V88.86c-2.32,4.23-7.15,6.35-12.25,6.35-11.64,0-18.46-9.07-18.46-19.32,0-11.45,8.27-19.26,18.46-19.26,6.62,0,10.66,3.51,12.25,6.42v-5.3h8.67Zm-30.71-18c0,4.5,3.24,11,11,11a10.28,10.28,0,0,0,9.66-5.83,12.4,12.4,0,0,0,1.39-5.09,11.26,11.26,0,0,0-1-5.1,10.66,10.66,0,0,0-10.12-6.42c-7,0-11,5.69-11,11.32Z" class="cls-1"/><path d="M366.27,45.11h8.67V71.59l12.51-13.84h10.39l-15.09,16,15.16,20.32H388L374.94,76V94.09h-8.67Z" class="cls-1"/><path d="M412.83,85.41c4.51,3.71,10.41,2.19,13.77-1.46A9.36,9.36,0,0,0,429,74.23l6.14-6.49a20.52,20.52,0,0,1,1.59,11.61,18,18,0,0,1-4.83,9.74,19.29,19.29,0,0,1-28.13-26.41,18.55,18.55,0,0,1,13.36-6c6.36-.09,11.64,2.62,15.75,7.51Zm9.42-19.6c-2.73-2.12-8.74-2.79-13.05,1.87s-3.46,10.4-1.08,13.09Z" class="cls-1"/><path d="M444,57.75h8.14c0,1.59,0,3.11-.07,4.84,1.59-2.85,4.83-6,11.32-6,11.84.07,14.09,9.13,14.09,15.55V94.09h-8.66V74.36c0-5.42-1.79-9.59-7.88-9.59s-8.27,4.17-8.27,9.26V94.09H444Z" class="cls-1"/></g><g id="Kraken"><path d="M132.56,32.13a2.43,2.43,0,0,0-4.7.85,2.54,2.54,0,0,0,.15.85,55.83,55.83,0,0,1-44.93,75V82.76a38.22,38.22,0,0,0,4.86-1.3v21.9A51.34,51.34,0,0,0,100.58,8.55a2.43,2.43,0,0,0-2.34,4.25,46.49,46.49,0,0,1-5.46,83.94V77.32A7.46,7.46,0,0,0,98,70.26a7.31,7.31,0,0,0-3.65-6.42c1.74-16.76,9.38-12.34,9.38-17.67V43.05c0-8-18.51-34.07-27.18-34.7-.26,0-.53,0-.79,0s-.55,0-.81,0C66.3,9,47.77,35,47.77,43.05v3.12c0,5.33,7.64.91,9.38,17.67a7.3,7.3,0,0,0-3.64,6.42,7.45,7.45,0,0,0,5.23,7.06V96.74A46.49,46.49,0,0,1,53.29,12.8a2.43,2.43,0,0,0-2.35-4.25,51.35,51.35,0,0,0,12.65,94.81V81.46a38.08,38.08,0,0,0,4.85,1.3v26.06a55.85,55.85,0,0,1-44.94-75,2.42,2.42,0,0,0-1.32-3.08,2.35,2.35,0,0,0-1-.2A2.44,2.44,0,0,0,19,32.13a60.72,60.72,0,0,0,54.34,82V83.39c.87,0,2.46.07,2.46.07s1.6,0,2.46-.07V114.1a60.69,60.69,0,0,0,54.34-82ZM87,66.74a5,5,0,1,1-1.46,3.52A5,5,0,0,1,87,66.74ZM64.57,73.79a5,5,0,0,1-8.51-3.53,5,5,0,0,1,10,0A5,5,0,0,1,64.57,73.79Z" class="cls-2"/></g><g id="Axosoft"><path d="M215.37,30a3.2,3.2,0,0,0,.42,1.08,2.24,2.24,0,0,0,.79.77,2.37,2.37,0,0,0,1.22.28,2.47,2.47,0,0,0,1.24-.28,2.27,2.27,0,0,0,.8-.77,3.68,3.68,0,0,0,.42-1.08,6.36,6.36,0,0,0,.12-1.24,6.54,6.54,0,0,0-.12-1.25,3.48,3.48,0,0,0-.42-1.08,2.25,2.25,0,0,0-2-1.06,2.37,2.37,0,0,0-1.22.29,2.42,2.42,0,0,0-.79.77,3,3,0,0,0-.42,1.08,6.54,6.54,0,0,0-.12,1.25A6.36,6.36,0,0,0,215.37,30Z" class="cls-3"/><path d="M192.77,30.13a3.23,3.23,0,0,0,.42,1.07A2.21,2.21,0,0,0,194,32a2.36,2.36,0,0,0,1.21.28,2.39,2.39,0,0,0,1.22-.28,2.27,2.27,0,0,0,.79-.75,3.45,3.45,0,0,0,.41-1.07,6.31,6.31,0,0,0,0-2.45,3.18,3.18,0,0,0-.41-1.07,2.23,2.23,0,0,0-2-1.05,2.36,2.36,0,0,0-1.21.29,2.33,2.33,0,0,0-.77.76,3,3,0,0,0-.42,1.07,6.31,6.31,0,0,0,0,2.45Z" class="cls-3"/><path d="M174.65,29.09a4.78,4.78,0,0,1-.6.15,6.53,6.53,0,0,1-.66.1l-.69.11a4.74,4.74,0,0,0-.65.16,1.9,1.9,0,0,0-.55.28,1.25,1.25,0,0,0-.38.44A1.45,1.45,0,0,0,171,31a1.39,1.39,0,0,0,.14.65,1.13,1.13,0,0,0,.39.42,1.45,1.45,0,0,0,.57.22,3.74,3.74,0,0,0,.68.06,2.6,2.6,0,0,0,1.33-.29,2,2,0,0,0,.69-.68,2.37,2.37,0,0,0,.28-.81,6.49,6.49,0,0,0,.05-.65V28.83A1.29,1.29,0,0,1,174.65,29.09Z" class="cls-3"/><path d="M164.32,17.09,158.1,36.91H241l6.22-19.82ZM175.44,34a4.67,4.67,0,0,1-.14-.5,4.51,4.51,0,0,1-.07-.53,3.74,3.74,0,0,1-1.64,1,6.51,6.51,0,0,1-1.92.28,5.34,5.34,0,0,1-1.41-.18,3.3,3.3,0,0,1-1.14-.57,2.6,2.6,0,0,1-.77-1,3.34,3.34,0,0,1-.28-1.41,3.09,3.09,0,0,1,.32-1.48,2.56,2.56,0,0,1,.82-.93,3.5,3.5,0,0,1,1.14-.52,12.07,12.07,0,0,1,1.3-.28c.44-.07.87-.12,1.29-.16a8.12,8.12,0,0,0,1.13-.18,2.21,2.21,0,0,0,.77-.36.81.81,0,0,0,.27-.69,1.43,1.43,0,0,0-.16-.74,1,1,0,0,0-.4-.43,1.58,1.58,0,0,0-.6-.21,5.31,5.31,0,0,0-.72-.05,2.15,2.15,0,0,0-1.35.37,1.64,1.64,0,0,0-.58,1.23h-2.9a3.35,3.35,0,0,1,.51-1.7,3.4,3.4,0,0,1,1.15-1.08,4.86,4.86,0,0,1,1.56-.59,9.35,9.35,0,0,1,1.75-.17,12.84,12.84,0,0,1,1.62.11,5.06,5.06,0,0,1,1.49.44,2.88,2.88,0,0,1,1.1.91,2.51,2.51,0,0,1,.43,1.54v5.5a11.88,11.88,0,0,0,.08,1.37,2.54,2.54,0,0,0,.29,1Zm11.46,0-2.24-3.44c-.74,1.11-1.46,2.24-2.15,3.38l0,.06h-3.25A31.19,31.19,0,0,1,183,28.38l-3.46-4.95h3.31l2,2.94a31.4,31.4,0,0,1,7.37-5.46,81,81,0,0,0-6,7.38l4,5.72Zm13.29-2.85A4.72,4.72,0,0,1,197.4,34a6.32,6.32,0,0,1-2.23.38A6.23,6.23,0,0,1,193,34a4.85,4.85,0,0,1-1.69-1.1,5,5,0,0,1-1.09-1.73,6.4,6.4,0,0,1-.38-2.25,6.51,6.51,0,0,1,.38-2.27A4.72,4.72,0,0,1,193,23.8a5.81,5.81,0,0,1,2.22-.4,5.9,5.9,0,0,1,2.23.4,4.94,4.94,0,0,1,1.7,1.1,4.86,4.86,0,0,1,1.09,1.74,6.29,6.29,0,0,1,.38,2.27A6.18,6.18,0,0,1,200.19,31.16Zm10.88,1.2A3.43,3.43,0,0,1,210,33.5a4.67,4.67,0,0,1-1.54.6,9.48,9.48,0,0,1-1.77.17,9,9,0,0,1-1.8-.18,4.52,4.52,0,0,1-1.56-.62,3.39,3.39,0,0,1-1.13-1.13,3.62,3.62,0,0,1-.48-1.77h2.76a1.73,1.73,0,0,0,.19.81,1.68,1.68,0,0,0,.51.55,2.24,2.24,0,0,0,.7.32,3.25,3.25,0,0,0,.83.1,2.91,2.91,0,0,0,.64-.07,2.09,2.09,0,0,0,.62-.23,1.38,1.38,0,0,0,.46-.41,1.08,1.08,0,0,0,.18-.64c0-.44-.29-.76-.87-1a17.44,17.44,0,0,0-2.42-.66,12.54,12.54,0,0,1-1.24-.33,4.24,4.24,0,0,1-1.07-.51,2.52,2.52,0,0,1-.76-.8,2.27,2.27,0,0,1-.28-1.18,3.2,3.2,0,0,1,.39-1.67,3,3,0,0,1,1.06-1,4.51,4.51,0,0,1,1.47-.53,9.21,9.21,0,0,1,1.68-.15,8.27,8.27,0,0,1,1.66.16,4.59,4.59,0,0,1,1.44.55,3.29,3.29,0,0,1,1.06,1,3.52,3.52,0,0,1,.5,1.62h-2.76a1.25,1.25,0,0,0-.64-1.13,2.86,2.86,0,0,0-1.35-.3l-.53,0a2.09,2.09,0,0,0-.52.13,1.08,1.08,0,0,0-.4.3.77.77,0,0,0-.16.52.79.79,0,0,0,.29.64,2.34,2.34,0,0,0,.74.4,10,10,0,0,0,1,.27l1.21.27a12.57,12.57,0,0,1,1.24.34,4,4,0,0,1,1.07.55,2.33,2.33,0,0,1,1,2.07A3.46,3.46,0,0,1,211.07,32.36ZM222.89,31a4.78,4.78,0,0,1-1.1,1.75,4.86,4.86,0,0,1-1.73,1.11,6.71,6.71,0,0,1-4.51,0,4.86,4.86,0,0,1-1.71-1.11A4.94,4.94,0,0,1,212.73,31a6.36,6.36,0,0,1-.39-2.29,6.49,6.49,0,0,1,.39-2.3,5,5,0,0,1,1.11-1.76,4.89,4.89,0,0,1,1.71-1.12,6.56,6.56,0,0,1,4.51,0,4.88,4.88,0,0,1,1.73,1.12,4.82,4.82,0,0,1,1.1,1.76,6.49,6.49,0,0,1,.39,2.3A6.36,6.36,0,0,1,222.89,31Zm13.87-5.64h-2.13v5.23a1.38,1.38,0,0,0,.25,1,1.38,1.38,0,0,0,1,.25l.47,0c.15,0,.29,0,.43-.06V34c-.25,0-.52.06-.82.08l-.88,0a8.77,8.77,0,0,1-1.28-.09,3,3,0,0,1-1.06-.36,1.91,1.91,0,0,1-.73-.76,2.82,2.82,0,0,1-.26-1.29V25.38h-3.54V34h-2.9V25.38h-1.74V23.43h1.74v-.81a3.15,3.15,0,0,1,.88-2.31,3.54,3.54,0,0,1,2.65-.9q.39,0,.78,0l.76,0v2.17a9.16,9.16,0,0,0-1.07-.07,1.12,1.12,0,0,0-.84.28,1.36,1.36,0,0,0-.26.93v.63h3.54V20.26h2.9v3.17h2.13Z" class="cls-3"/></g></svg>