<svg id="Layer_1" data-name="Layer 1" xmlns="http://www.w3.org/2000/svg" viewBox="0 0 469.7 171.6"><defs><style>.cls-1{fill:#989ba1}</style></defs><path class="cls-1" d="M176.944 79.313c.213 2.361.362 4.744.362 7.161 0-2.418-.149-4.8-.362-7.161z"/><path class="cls-1" d="M61.23 78.9s-21.689 79.918 65.248 80.614A77.991 77.991 0 00176.9 94.45c.211-2.076.274-4.193.32-6.315.009-.559.083-1.1.083-1.662 0-2.418-.148-4.8-.362-7.161-22.965 90.419-124.574 55.002-115.711-.412z"/><path d="M106.184 49.235s-80.938-22.6-79.7 65.657a78.218 78.218 0 0018.863 28.2c.343.329.707.64 1.059.964a78.272 78.272 0 007.4 6.029c.4.287.779.6 1.182.883a77.676 77.676 0 008.539 5.07c.858.442 1.734.845 2.61 1.256a77.183 77.183 0 007.8 3.165c.651.223 1.275.5 1.935.708a77.317 77.317 0 009.705 2.3c.992.176 2 .32 3 .458a78.24 78.24 0 0010.278.8c.132 0 .26.02.392.02 2.594 0 5.155-.138 7.682-.388-90.829-21.668-56.296-123.224-.745-115.122z" fill="#929497"/><path class="cls-1" d="M137.734 91.091s19.151-80.736-67.051-77.129a77.2 77.2 0 00-48.568 83.117c18.143-91.347 121.497-61.77 115.619-5.988z"/><path class="cls-1" d="M96.345 125.835s81.086 10.586 76.01-66.507A77.559 77.559 0 0085.163 9.815c90.353 11.091 66.87 116.81 11.182 116.02z"/><path class="cls-1" d="M121.818 86.475a21.847 21.847 0 11-21.84-21.848 21.846 21.846 0 0121.84 21.848zM379.117 96.66h8.472v8.472h-8.472zM388.167 105.695h8.457v8.472h-8.457zM379.117 114.729h8.472v8.472h-8.472zM240.8 71.742V79.2h-.9a15.943 15.943 0 00-13.135 6.468 23.347 23.347 0 00-4.776 14.727v21.892h-7.463V72.538h7.463v12.24A18.864 18.864 0 01240.3 71.742zM269.758 116.321q10.049 0 14.429-8.359h8.16a24.018 24.018 0 01-8.209 10.946q-5.623 4.18-14.479 4.18-11.246 0-18.31-7.463-6.866-7.263-6.866-18.21 0-11.045 6.567-18.21 6.964-7.463 18.11-7.463t18.11 7.463q6.567 7.165 6.567 18.21v2.985h-41.692a18.052 18.052 0 005.473 11.344 16.83 16.83 0 0012.14 4.577zm-.6-37.813a16.469 16.469 0 00-11.543 4.279 17.671 17.671 0 00-5.373 10.647h33.833a17.687 17.687 0 00-5.375-10.647 16.472 16.472 0 00-11.539-4.279zM310.456 80.5q5.97-8.755 17.812-8.757 10.747 0 17.414 7.463 6.665 7.365 6.667 18.21t-6.667 18.21q-6.668 7.463-17.911 7.463t-17.314-8.856v27.763h-7.463V72.538h7.463zm16.817-1.99q-8.06 0-12.737 5.573-4.478 5.275-4.478 13.334t4.478 13.334q4.676 5.574 12.737 5.573a16.529 16.529 0 0012.936-5.573 19.354 19.354 0 004.677-13.334 19.357 19.357 0 00-4.677-13.334 16.533 16.533 0 00-12.936-5.575zM369.564 122.292H362.1V52.636h7.463zM411.455 54.428v9.752h-8.06v-9.752zm-7.762 18.11h7.463v49.754h-7.463zM429.464 122.292V79.105h-10.15v-6.567h10.15V54.726h7.463v17.812h11.443v6.567h-11.443v43.186z"/></svg>