<svg xmlns="http://www.w3.org/2000/svg" width="226.07" height="73.807"><defs><style>.a{fill:#0087be}.b{fill:#1aa6e4}.c{fill:#0092cf}</style></defs><path d="M31.969 66.369L6.329 51.708V22.135h.036L0 18.452v36.9l31.969 18.452z" class="a"/><path d="M31.966 36.904l-19.164-11.05h-.036v22.135l19.2 10.978V36.904z" class="a"/><path d="M63.9 18.452L31.969 0 0 18.452l6.365 3.683 25.6-14.769L57.572 22.1l6.328-3.648z" class="b"/><path d="M51.136 25.819l-19.167-11.05-19.167 11.085 19.167 11.05z" class="b"/><path d="M31.969 36.903l19.167-11.085zm25.603-14.804v.036l6.329-3.683z" class="c"/><path fill="#e8bfd8" d="M51.136 25.818l6.437-3.683v-.036z"/><path d="M63.902 18.452l-6.329 3.683-6.44 3.683-19.164 11.086v3.29h-.036v8.758h.036v10.015l19.164-10.978v-7.33l-12.871 7.33v-7.4l19.31-11.014v22.133l-25.6 14.661v7.438l31.93-18.455z" class="c"/><path d="M106.849 48.311c-2.253 2.324-5.686 3.612-9.727 3.612-7.688 0-13.517-6.043-13.517-14.089 0-8.189 5.757-14.161 13.66-14.161a16.409 16.409 0 0110.084 3.469l.358.286v-2.966l-.072-.072a17.007 17.007 0 00-10.512-3.328c-9.262 0-16.235 7.188-16.235 16.735s7.009 16.7 16.27 16.7a16.615 16.615 0 0012.373-5.078l.072-.072V35.262h-2.715zm10.978-16.592h2.682v22.207h-2.682zm1.323-9.477a2.038 2.038 0 102.038 2.038 2.061 2.061 0 00-2.038-2.038zm15.055 2.503h-2.646v6.973h-5.507v2.427h5.507v13.772c0 4.22 2.11 6.544 5.9 6.544a8.621 8.621 0 004.363-1.037l.107-.072v-2.607l-.322.179a6.844 6.844 0 01-3.54.965c-2.825 0-3.826-1.18-3.862-4.577V34.145h8.01v-2.427h-8.01zm25.281 6.401a10.958 10.958 0 00-8.725 3.934v-3.362h-2.646l.036 31.328h2.682V50.528a10.98 10.98 0 008.725 3.969c6.437 0 11.3-5.006 11.264-11.658s-4.899-11.693-11.336-11.693zm8.582 11.658a8.935 8.935 0 01-9.047 9.19 9.273 9.273 0 01-8.26-5.221v-7.975a9.264 9.264 0 018.26-5.185 8.935 8.935 0 019.048 9.191zm18.988-11.657a11.641 11.641 0 1011.836 11.658 11.5 11.5 0 00-11.836-11.658zm0 2.467a8.981 8.981 0 019.119 9.226 9.1 9.1 0 11-18.2.036 8.961 8.961 0 019.083-9.262zm36.332-12.087v13.517a10.879 10.879 0 00-8.725-3.969c-6.437 0-11.3 5.042-11.264 11.729a11.192 11.192 0 0011.3 11.587 10.958 10.958 0 008.725-3.934v3.361h2.646l-.036-32.327zm0 17.272v7.974a9.346 9.346 0 01-8.26 5.185 9.173 9.173 0 010-18.345 9.346 9.346 0 018.26 5.185z" fill="#fff"/></svg>