<svg version="1.2" baseProfile="tiny" xmlns="http://www.w3.org/2000/svg" width="1000" height="1000"><path d="M103.788 453.995a107.694 107.694 0 0151.94-10.939c34.73 1.2 53.808 18.811 54.564 53.363.845 36.198.578 72.084.444 108.237 0 14.721-3.869 18.099-18.41 18.099h-20.145c-12.852 0-16.854-3.913-17.121-16.853v-96.898c0-14.986-7.071-21.168-22.234-20.545a50.21 50.21 0 00-7.872.756c-19.877 4.047-21.034 5.469-21.034 25.747v86.359c0 18.455-3.157 21.567-21.345 21.567H62.432c-9.472 0-13.652-4.446-14.275-14.229V380.487c0-16.676 3.558-20.188 19.967-20.188h17.787c13.786 0 18.01 3.868 18.278 17.787.4 20.856 0 41.711 0 62.523-.401 3.826-.401 7.961-.401 13.386zm296.877 84.537c-1.201 9.604-1.913 21.921-4.448 33.929-4.01 27.05-25.009 48.428-51.985 52.919a125.537 125.537 0 01-55.853-.713 60.654 60.654 0 01-47.404-45.003 159.19 159.19 0 010-88.671c8.894-30.417 32.15-46.737 66.215-47.895 12.29-.655 24.614.106 36.731 2.268 32.151 6.449 50.383 28.239 54.52 63.813 1.023 9.03 1.333 17.745 2.224 29.353zm-56.121.711c-.623-9.918-.978-16.677-1.602-23.348a56.963 56.963 0 00-2.134-10.317c-2.041-11.221-12.242-19.077-23.612-18.187-11.09-.839-21.018 6.844-22.992 17.787a124.557 124.557 0 000 60.923c2.075 11.133 12.407 18.767 23.658 17.476 10.659.736 20.195-6.588 22.234-17.074a256.68 256.68 0 004.448-27.305v.045zm411.83-27.66c2.446-18.588-1.69-24.324-19.61-23.48a348.249 348.249 0 00-43.447 6.447c-12.141 2.18-21.034-.889-22.723-10.315-2.758-15.563-1.69-28.905 10.805-32.64a168.977 168.977 0 0189.428-4.448c26.948 6.447 40.021 24.279 40.021 53.363v102.989c0 7.783 0 15.788-9.248 18.812a25.746 25.746 0 01-28.772-7.916l-2.846-4.135a81.784 81.784 0 01-55.81 17.787c-43.801-1.6-68.972-43.357-49.939-83.067 8.894-18.899 26.683-24.859 45.05-27.793 15.829-2.359 31.527-3.826 47.091-5.604zm.846 30.327c-10.629 1.601-19.967 2.489-29.038 4.448-9.461 1.228-16.604 9.183-16.811 18.721-1.999 9.583 3.071 19.24 12.096 23.034 8.894 3.469 27.793 0 32.151-6.046a7.16 7.16 0 001.333-4.003c.269-11.696.269-23.348.269-36.287v.133zm-318.446-92.629v-22.99a14.1 14.1 0 0110.629-15.298 285.427 285.427 0 0127.615-7.738c6.735-2.237 14.01 1.411 16.248 8.146.598 1.8.79 3.712.562 5.595.311 9.917 0 19.745 0 30.773h26.37c12.852.312 17.254 4.445 17.789 17.787.711 27.037-.756 28.551-27.482 28.551h-15.521a67.356 67.356 0 00-.845 7.291v57.056c0 17.787 5.337 23.212 22.635 24.457 15.164 1.112 19.301 4.448 19.301 16.81.533 19.699-3.471 26.37-19.301 27.304a149.78 149.78 0 01-37.577-1.911c-25.747-5.204-39.621-21.926-40.467-49.139-.756-23.747-.311-47.539-.399-71.152V494.15h-15.564c-7.327.589-13.75-4.859-14.363-12.184v-1.201c-2.136-18.188 1.111-23.035 18.41-27.928l11.96-3.556zm193.398 110.597c0 30.814.578 61.632 0 92.448-.15 35.538-29.082 64.227-64.618 64.075a64.364 64.364 0 01-10.091-.839c-12.406-1.556-16.81-6.447-16.987-19.299v-11.43c.534-10.761 3.87-14.497 14.542-16.454 16.453-3.066 21.835-9.25 21.878-26.457V466.669c0-14.854 3.782-18.812 18.679-19.299h20.232c11.963.532 16.453 4.891 16.541 16.94v94.987l-.176.581zm248.404-99.925a90.107 90.107 0 0149.851-16.854c17.787 0 21.879 3.736 21.834 21.346v7.916c0 11.385-4.713 15.431-15.831 16.587a301.042 301.042 0 00-31.128 5.47c-6.892 1.469-9.517 5.648-9.383 13.341.532 32.151 0 64.035 0 96.01 0 15.697-3.426 18.987-19.301 19.299h-22.901c-6.584.538-12.358-4.363-12.896-10.949a11.934 11.934 0 01.045-2.39V461.821c-.51-6.586 4.417-12.34 11.003-12.85.009-.002.017-.002.025-.002h.533c11.073-1.867 22.723-3.601 28.149 10.984z"/><path fill="#EE4854" d="M626.213 416.063c10.051-36.109 6.449-54.297-11.207-57.811 2.713 12.274 5.736 24.859-7.158 33.352-6.761 4.447-12.096 2.757-24.059-6.448-5.515 11.34-3.646 22.635-1.112 34.73-17.164-2.979-30.684-10.095-36.952-26.681a39.399 39.399 0 018.893-43.936 109.398 109.398 0 0113.34-11.518c19.301-14.497 23.035-28.549 12.852-50.339a29.652 29.652 0 01-1.11-3.824 129.31 129.31 0 0159.009 25.037c37.623 30.772 33.088 86.047-8.448 106.371a11.573 11.573 0 00-4.048 1.067z"/></svg>