<svg version="1.1" id="Ebene_1" xmlns="http://www.w3.org/2000/svg" x="0" y="0" viewBox="0 0 480 190" xml:space="preserve"><style>.st2{fill:#00caf4}.st4{opacity:.2;fill:#fff}.st7{fill:#002d4f}.st11{fill:#ffc600}.st18{fill:#db9927}.st29{opacity:.4;fill:#ff0}</style><path d="M439.7 121l-12.2-17.8c7.3-2.7 12.3-8.6 12.3-17.9v-.2c0-11.9-8.2-19-21.7-19h-24.6c-1 0-1.8.8-1.8 1.8V122c0 1 .8 1.8 1.8 1.8h9.1c1 0 1.8-.8 1.8-1.8v-16.7h10l11.8 17.7c.3.5.9.8 1.5.8h10.5c1.4 0 2.3-1.6 1.5-2.8zM427 86c0 4.9-3.5 8.1-9.7 8.1h-12.8V77.6h12.6c6.2 0 10 2.8 10 8.2v.2zm-93.5-19.8H324c-.8 0-1.5.5-1.7 1.3l-11.6 37.8-12.5-38c-.2-.7-.9-1.2-1.7-1.2h-8.3c-.8 0-1.4.5-1.7 1.2l-12.5 38-11.6-37.8c-.2-.7-.9-1.3-1.7-1.3H251c-1.2 0-2.1 1.2-1.7 2.3l18.5 54.5c.2.7.9 1.2 1.7 1.2h8.5c.8 0 1.4-.5 1.7-1.2l12.6-36.5 12.6 36.5c.2.7.9 1.2 1.7 1.2h8.5c.8 0 1.4-.5 1.7-1.2l18.5-54.5c.2-1.1-.6-2.3-1.8-2.3zm49.6 46.3h-29.5v-12.1H379c1 0 1.8-.8 1.8-1.8v-7.7c0-1-.8-1.8-1.8-1.8h-25.4V77.5h29.1c1 0 1.8-.8 1.8-1.8V68c0-1-.8-1.8-1.8-1.8h-39.9c-1 0-1.8.8-1.8 1.8v54c0 1 .8 1.8 1.8 1.8h40.3c1 0 1.8-.8 1.8-1.8v-7.7c0-1-.8-1.8-1.8-1.8zM218.8 65.2c-17.8 0-30.7 13.4-30.7 29.8v.2c0 16.4 12.8 29.6 30.5 29.6 17.8 0 30.7-13.4 30.7-29.8v-.2c0-16.3-12.7-29.6-30.5-29.6zm17.3 30c0 9.9-7.1 17.9-17.3 17.9s-17.5-8.2-17.5-18.1v-.2c0-9.9 7.1-17.9 17.3-17.9 10.2 0 17.5 8.2 17.5 18.1v.2zm-50.1-29h-44.2c-1 0-1.8.8-1.8 1.8v8.1c0 .9.6 1.6 1.5 1.7h16.1V122c0 1 .8 1.8 1.8 1.8h9.1c1 0 1.8-.8 1.8-1.8V77.8h16.1c.8-.1 1.5-.9 1.5-1.7V68c-.2-1-.9-1.8-1.9-1.8z" fill="#fff"/><path class="st2" d="M60.4 146.8v2.8c0 .2.2.4.4.4h37.7c.2 0 .4-.2.4-.4v-2.8H60.4z"/><path transform="rotate(-180 79.868 63.354)" class="st2" d="M56.7 54.1h46.4v18.5H56.7z"/><linearGradient id="SVGID_1_" gradientUnits="userSpaceOnUse" x1="56.686" y1="63.354" x2="103.05" y2="63.354"><stop offset=".408" stop-color="#fff" stop-opacity="0"/><stop offset=".999" stop-color="#fff"/></linearGradient><path opacity=".6" fill="url(#SVGID_1_)" d="M56.7 54.1H103v18.5H56.7z"/><path class="st4" d="M96.4 71.1h6.6v-6.7z"/><path opacity=".35" fill="#fff" d="M83.9 71.1l17-17H76.8l-17 17z"/><path opacity=".4" fill="#004972" d="M56.7 54.1h46.4V56H56.7z"/><path class="st4" d="M68.7 54.1h-12v12z"/><path transform="rotate(-180 79.868 71.918)" class="st7" d="M56.7 71.1h46.4v1.7H56.7z"/><path class="st7" d="M88.8 54.7h1.8v16.4h-1.8zm-19.7 0h1.8v16.4h-1.8z"/><linearGradient id="SVGID_2_" gradientUnits="userSpaceOnUse" x1="69.823" y1="71.075" x2="69.823" y2="54.704"><stop offset=".096" stop-color="#00caf4" stop-opacity="0"/><stop offset=".568" stop-color="#00caf4" stop-opacity=".281"/><stop offset=".6" stop-color="#00caf4" stop-opacity=".3"/><stop offset=".797" stop-color="#00caf4" stop-opacity=".3"/><stop offset="1" stop-color="#00caf4" stop-opacity=".1"/></linearGradient><path fill="url(#SVGID_2_)" d="M69.1 54.7h1.4v16.4h-1.4z"/><linearGradient id="SVGID_3_" gradientUnits="userSpaceOnUse" x1="-14908.978" y1="71.075" x2="-14908.978" y2="54.704" gradientTransform="matrix(-1 0 0 1 -14819.065 0)"><stop offset=".096" stop-color="#00caf4" stop-opacity="0"/><stop offset=".568" stop-color="#00caf4" stop-opacity=".281"/><stop offset=".6" stop-color="#00caf4" stop-opacity=".3"/><stop offset=".797" stop-color="#00caf4" stop-opacity=".3"/><stop offset="1" stop-color="#00caf4" stop-opacity=".1"/></linearGradient><path fill="url(#SVGID_3_)" d="M89.2 54.7h1.4v16.4h-1.4z"/><path d="M70.9 54.7h.4v16.4h-.4zm17.5 0h.4v16.4h-.4z" opacity=".3" fill="#004972"/><path class="st11" d="M105.3 77l-.7-3.9c0-.2-.2-.3-.4-.3H55.5c-.2 0-.4.1-.4.3l-.7 3.9h50.9z"/><path class="st7" d="M114.3 86.4l-1.6-9c0-.2-.2-.3-.4-.3H47.5c-.2 0-.4.1-.4.3l-1.6 9h68.8z"/><linearGradient id="SVGID_4_" gradientUnits="userSpaceOnUse" x1="45.443" y1="81.677" x2="114.293" y2="81.677"><stop offset=".096" stop-color="#00caf4" stop-opacity="0"/><stop offset=".568" stop-color="#00caf4" stop-opacity=".281"/><stop offset=".6" stop-color="#00caf4" stop-opacity=".3"/><stop offset=".797" stop-color="#00caf4" stop-opacity=".3"/><stop offset="1" stop-color="#00caf4" stop-opacity=".1"/></linearGradient><path d="M114.3 86.4l-1.6-9c0-.2-.2-.3-.4-.3H47.5c-.2 0-.4.1-.4.3l-1.6 9h68.8z" fill="url(#SVGID_4_)"/><linearGradient id="SVGID_5_" gradientUnits="userSpaceOnUse" x1="79.851" y1="114.773" x2="79.851" y2="146.782"><stop offset="0" stop-color="#005f8e"/><stop offset=".724" stop-color="#004972"/><stop offset=".74" stop-color="#004972"/></linearGradient><path d="M57.7 114.8v31c0 .6.5 1 1 1H101c.6 0 1-.5 1-1v-31H57.7z" fill="url(#SVGID_5_)"/><path class="st7" d="M47.5 77c-.2 0-.4.1-.4.3v.1h65.6v-.1c0-.2-.2-.3-.4-.3H47.5z"/><path class="st11" d="M48.5 43.5h62.7l-.9-3.2c-.1-.2-.2-.4-.5-.4H49.7c-.2 0-.4.2-.5.4l-.7 3.2z"/><linearGradient id="SVGID_6_" gradientUnits="userSpaceOnUse" x1="48.531" y1="41.74" x2="111.242" y2="41.74"><stop offset=".204" stop-color="#ffd813" stop-opacity="0"/><stop offset=".781" stop-color="#ffd813"/></linearGradient><path d="M48.5 43.5h62.7l-.9-3.2c-.1-.2-.2-.4-.5-.4H49.7c-.2 0-.4.2-.5.4l-.7 3.2z" fill="url(#SVGID_6_)"/><path opacity=".4" fill="#b47d4f" d="M48.5 43.5h62.7l-.2-.9H48.7z"/><path class="st7" d="M46 54.7h67.8c.2 0 .3-.1.3-.3l1.7-10.9H44l1.7 10.9c0 .2.1.3.3.3z"/><path fill="#005a82" d="M44.1 44.2h71.6l.1-.7H44z"/><linearGradient id="SVGID_7_" gradientUnits="userSpaceOnUse" x1="54.429" y1="74.884" x2="105.307" y2="74.884"><stop offset=".204" stop-color="#ffd813" stop-opacity="0"/><stop offset=".781" stop-color="#ffd813"/></linearGradient><path d="M105.3 77l-.7-3.9c0-.2-.2-.3-.4-.3H55.5c-.2 0-.4.1-.4.3l-.7 3.9h50.9z" fill="url(#SVGID_7_)"/><path class="st18" d="M105.3 77l-.2-1.3H54.7l-.3 1.3z"/><path opacity=".35" fill="#002d4f" d="M114.3 86.4l-.4-2.2H45.8l-.4 2.2z"/><path opacity=".2" fill="#004972" d="M60.4 146.8H99v.6H60.4z"/><path d="M68.9 114.8H57.7v31c0 .6.5 1 1 1h10.2v-32z" opacity=".4" fill="#002d4f"/><linearGradient id="SVGID_8_" gradientUnits="userSpaceOnUse" x1="96.389" y1="114.774" x2="96.389" y2="146.782"><stop offset="0" stop-color="#008dc4"/><stop offset=".541" stop-color="#0072a7"/></linearGradient><path d="M102 145.7v-31H90.8v32H101c.5.1 1-.4 1-1z" fill="url(#SVGID_8_)"/><path class="st11" d="M120 94l-1.7-7c-.1-.4-.4-.7-.8-.7H42.3c-.4 0-.7.3-.8.7l-1.7 7c0 .1 0 .2.1.3L53 114.4c.1.2.4.4.7.4h52.4c.3 0 .5-.1.7-.4L120 94.3V94z"/><linearGradient id="SVGID_9_" gradientUnits="userSpaceOnUse" x1="63.424" y1="120.55" x2="91.781" y2="71.435"><stop offset=".204" stop-color="#ffd813" stop-opacity="0"/><stop offset=".781" stop-color="#ffd813"/></linearGradient><path d="M120 94l-1.7-7c-.1-.4-.4-.7-.8-.7H42.3c-.4 0-.7.3-.8.7l-1.7 7c0 .1 0 .2.1.3L53 114.4c.1.2.4.4.7.4h52.4c.3 0 .5-.1.7-.4L120 94.3V94z" opacity=".4" fill="url(#SVGID_9_)"/><path d="M120 94l-1.7-7c-.1-.4-.4-.7-.8-.7H42.3c-.4 0-.7.3-.8.7l-1.7 7c0 .1 0 .2.1.3L53 114.4c.1.2.4.4.7.4h52.4c.3 0 .5-.1.7-.4L120 94.3V94z" fill="none"/><path class="st18" d="M39.7 94.2c0 .1 0 .1.1.2l13.2 20c.1.2.4.4.7.4h52.4c.3 0 .5-.1.7-.4L120 94.3s.1-.1.1-.2H39.7z"/><path opacity=".42" fill="#002d4f" d="M57.7 114.8H102v2.6H57.7z"/><path d="M68.4 114.4L55.2 94.2H39.7c0 .1 0 .1.1.2l13.2 20c.1.2.4.4.7.4h15.5c-.3 0-.6-.2-.8-.4z" fill="#cd7f1f"/><path d="M55.4 94l1.8-7.3c0-.2.2-.3.4-.3H42.5c-.4 0-.7.3-.8.7l-1.7 7h15.4z" opacity=".4" fill="#cd7f1f"/><path d="M91.3 114.4l13.3-20.1H120c0 .1 0 .1-.1.2l-13.2 20.1c-.1.2-.4.4-.7.4H90.5c.4-.2.6-.4.8-.6z" opacity=".4" fill="#ffe700"/><path class="st29" d="M104.5 94l-1.8-7.3c0-.2-.2-.3-.4-.3h15.1c.4 0 .7.3.8.7l1.7 7h-15.4z"/><path class="st29" d="M39.7 94.2H120l-.2-.8H39.9z"/><linearGradient id="SVGID_10_" gradientUnits="userSpaceOnUse" x1="44.006" y1="48.806" x2="115.767" y2="48.806"><stop offset=".096" stop-color="#00caf4" stop-opacity="0"/><stop offset=".568" stop-color="#00caf4" stop-opacity=".281"/><stop offset=".6" stop-color="#00caf4" stop-opacity=".3"/><stop offset=".797" stop-color="#00caf4" stop-opacity=".3"/><stop offset="1" stop-color="#00caf4" stop-opacity=".1"/></linearGradient><path fill="url(#SVGID_10_)" d="M114.2 54.1l1.6-10.6H44l1.6 10.6z"/><path d="M55.5 72.8c-.2 0-.4.1-.4.3v.1h49.5v-.1c0-.2-.2-.3-.4-.3H55.5z" fill="#fff203"/></svg>