<svg xmlns="http://www.w3.org/2000/svg" version="1.1" id="Layer_1" viewBox="0 0 1200 728.2" x="0" y="0" xml:space="preserve"><style>.st0{fill:#fff}.st1{fill:#f8991d}</style><path class="st0" d="M875.18 354.79c10.06 6.29 25.16 11.32 44.03 15.1 18.87 5.03 39 6.29 59.13 6.29s37.74-2.52 54.1-7.55c16.36-5.03 30.19-12.58 42.78-21.39 11.32-8.81 21.39-20.13 27.68-33.97 6.29-13.84 10.06-27.68 10.06-45.29 0-20.13-6.29-37.74-17.61-54.1-11.32-15.1-31.45-27.68-59.13-36.49l-54.1-17.61c-20.13-6.29-35.23-13.84-42.78-21.39-7.55-7.55-11.32-16.36-11.32-27.68 0-15.1 6.29-27.68 17.61-33.97 12.58-7.55 28.94-11.32 51.58-11.32 27.68 0 51.58 5.03 74.23 15.1 6.29 2.52 11.32 5.03 15.1 5.03 6.29 0 8.81-3.77 8.81-12.58v-15.1c0-5.03-1.26-10.06-3.77-12.58-2.52-3.77-6.29-7.55-11.32-10.06-3.77-2.52-10.06-5.03-16.36-6.29-6.29-2.52-13.84-3.77-21.39-6.29-7.55-1.26-16.36-3.77-25.16-3.77-8.81-2.52-17.61-2.52-26.42-2.52-17.61 0-32.71 2.52-47.81 6.29-15.1 5.03-28.94 11.32-40.26 20.13-11.32 8.81-20.13 18.87-27.68 31.45-7.55 12.58-10.06 26.42-10.06 42.78 0 20.13 6.29 39 18.87 55.36 12.58 17.61 32.71 30.19 61.65 39l55.36 17.61c18.87 6.29 31.45 12.58 39 20.13 7.55 7.55 10.06 16.36 10.06 26.42 0 15.1-6.29 27.68-20.13 36.49-13.84 8.81-31.45 12.58-56.61 12.58-15.1 0-30.19-1.26-45.29-5.03-15.1-2.52-28.94-7.55-42.78-13.84-3.77-1.26-7.55-2.52-10.06-3.77-2.52-1.26-5.03-1.26-7.55-1.26-6.29 0-8.81 3.77-8.81 12.58v18.87c0 3.77 1.26 7.55 2.52 11.32 3.76 5.03 7.54 7.54 13.83 11.32M268.77 236.53c0 12.58-1.26 23.9-3.77 32.71-2.52 8.81-6.29 17.61-12.58 23.9-10.06 11.32-22.65 20.13-36.49 23.9-13.84 5.03-27.68 7.55-40.26 7.55-17.61 0-31.45-5.03-40.26-13.84-8.81-8.81-13.84-22.65-13.84-40.26 0-18.87 6.29-33.97 18.87-44.03 12.58-10.06 31.45-15.1 56.61-15.1 11.32 0 23.9 1.26 36.49 2.52 12.58 1.26 23.9 3.77 35.23 6.29v16.36m-44.03-67.94c-13.84-2.52-27.68-2.52-40.26-2.52-39 0-70.45 10.06-94.36 30.19-23.9 20.13-35.23 46.55-35.23 79.26 0 31.45 8.81 55.36 27.68 74.23 18.87 18.87 44.03 27.68 76.74 27.68 45.29 0 83.04-17.61 113.23-52.84 3.77 8.81 7.55 16.36 11.32 22.65 3.77 6.29 8.81 12.58 13.84 17.61 3.77 3.77 7.55 5.03 11.32 5.03 2.52 0 6.29-1.26 10.06-3.77l23.9-16.36c5.03-3.77 7.55-7.55 7.55-11.32 0-2.52-1.26-5.03-2.52-8.81-5.03-10.06-10.06-18.87-12.58-27.68-2.52-8.81-3.77-20.13-3.77-33.97v-125.8c0-41.52-10.06-72.97-31.45-94.36s-54.1-31.45-100.65-31.45c-21.39 0-41.52 2.52-60.39 7.55-17.61 5.03-33.97 10.07-47.81 17.61-5.03 2.52-8.81 5.03-10.06 7.55-2.52 2.52-2.52 7.55-2.52 13.84v18.87c0 7.55 2.52 12.58 7.55 12.58 1.26 0 3.77 0 6.29-1.26s7.55-2.52 13.84-5.03c13.84-5.03 27.68-10.06 41.52-12.58 13.84-3.77 27.68-5.03 41.52-5.03 30.19 0 50.32 6.29 62.91 17.61 12.58 11.32 17.61 32.71 17.61 61.65v27.68c-16.35-3.78-30.19-6.3-45.28-8.81zM462.52 348.5c2.52 7.55 5.03 12.58 7.55 15.1 2.52 2.52 7.55 3.77 15.1 3.77h32.71c7.55 0 12.58-1.26 15.1-3.77 2.52-2.52 5.03-7.55 7.55-15.1l59.13-247.85 60.39 247.85c1.26 7.55 3.77 12.58 7.55 15.1 2.52 2.52 8.81 3.77 15.1 3.77h32.71c6.29 0 11.32-1.26 15.1-3.77 2.52-2.52 6.29-7.55 7.55-15.1l93.1-296.91c1.26-3.77 2.52-7.55 2.52-8.81 0-2.52 1.26-3.77 1.26-6.29 0-6.29-2.52-8.81-8.81-8.81H790.9c-7.55 0-12.58 1.26-15.1 3.77-2.52 2.52-5.03 7.55-7.55 15.1l-66.68 257.91-61.66-259.17c-1.26-7.55-3.77-12.58-7.55-15.1-2.52-2.52-8.81-3.77-15.1-3.77h-31.45c-7.55 0-12.58 1.26-15.1 3.77-2.52 2.52-5.03 7.55-7.55 15.1l-60.39 254.14-64.16-254.14c-2.52-7.55-5.03-12.58-7.55-15.1-2.52-2.52-7.55-3.77-15.1-3.77h-37.74c-6.29 0-8.81 2.52-8.81 8.81 0 2.52 1.26 7.55 3.77 15.1l89.34 298.17"/><path class="st1" d="M1032.44 534.7c-140.91 60.39-295.66 89.33-435.31 89.33-207.59 0-408.88-56.61-571.18-152.23-13.84-8.81-25.16 6.29-12.58 17.61 150.97 135.88 349.75 217.65 571.18 217.65 157.26 0 340.95-49.07 468.02-143.42 18.87-15.1 1.26-37.75-20.13-28.94"/><path class="st1" d="M953.18 481.86c-11.32 7.55-8.81 18.87 2.52 17.61 40.26-5.03 132.1-16.36 147.2 5.03 16.36 20.13-17.61 105.68-32.71 144.68-5.03 11.32 5.03 16.36 16.36 7.55 67.94-56.61 85.55-176.13 71.71-192.49-13.85-18.87-133.37-32.71-205.08 17.62"/></svg>